<?xml version="1.0" standalone="no"?>
<!DOCTYPE svg PUBLIC "-//W3C//DTD SVG 20010904//EN"
 "http://www.w3.org/TR/2001/REC-SVG-20010904/DTD/svg10.dtd">
<svg version="1.0" xmlns="http://www.w3.org/2000/svg"
 width="495.000000pt" height="495.000000pt" viewBox="0 0 495.000000 495.000000"
 preserveAspectRatio="xMidYMid meet">
<metadata>
Created by potrace 1.14, written by Peter Selinger 2001-2017
</metadata>
<g transform="translate(0.000000,495.000000) scale(0.100000,-0.100000)"
fill="#000000" stroke="none">
<path d="M2427 4902 c-10 -2 -28 -27 -43 -59 -54 -123 -68 -185 -80 -348 l-6
-81 168 1 c93 0 182 -4 197 -8 27 -7 28 -7 25 33 -1 23 -4 43 -7 45 -4 2 -6
43 -5 92 1 78 -2 94 -28 145 -15 32 -28 60 -28 63 1 14 -52 106 -63 110 -18 7
-109 12 -130 7z"/>
<path d="M1390 4540 c-8 -5 -11 -12 -7 -16 4 -4 13 -2 19 4 15 15 7 24 -12 12z"/>
<path d="M2378 4395 c-2 -1 -23 -5 -48 -9 -44 -6 -76 -13 -155 -36 -53 -16
-186 -85 -222 -116 -15 -13 -34 -24 -42 -24 -8 0 -12 -2 -10 -5 3 -2 -31 -42
-75 -87 -78 -80 -176 -206 -180 -231 -1 -7 -16 -37 -33 -67 -17 -30 -37 -75
-44 -100 -7 -25 -16 -50 -21 -56 -9 -13 -48 -153 -56 -204 -5 -31 -7 -286 -3
-395 3 -88 70 -377 100 -434 6 -10 13 -33 16 -51 3 -18 15 -46 26 -62 11 -15
18 -28 16 -28 -9 0 49 -140 93 -225 16 -31 33 -50 44 -50 20 0 113 73 121 96
3 8 23 29 46 45 22 16 46 35 54 42 7 6 18 12 24 12 6 0 11 5 11 10 0 6 6 10
13 10 7 0 18 9 25 21 11 18 11 24 -2 37 -8 10 -15 19 -15 22 0 3 -5 19 -12 35
-7 17 -13 32 -14 35 -7 20 -19 49 -28 69 -7 13 -12 31 -13 40 0 9 -6 29 -12
44 -7 16 -12 39 -12 53 0 13 -4 24 -8 24 -5 0 -9 6 -10 13 0 6 -7 33 -15 59
-9 25 -13 49 -10 51 3 3 0 21 -6 40 -23 69 -32 144 -35 282 -2 121 1 150 21
222 25 88 87 227 113 253 3 3 17 21 32 40 73 97 175 180 221 180 8 0 21 7 28
16 12 14 29 16 125 10 61 -3 117 -8 125 -11 8 -2 30 -6 49 -8 19 -3 43 -8 53
-12 10 -4 20 -5 24 -2 12 12 85 -36 144 -94 63 -63 111 -148 124 -224 4 -22
10 -44 14 -50 3 -5 5 -37 3 -70 -5 -115 -2 -139 27 -190 15 -27 36 -75 46
-105 21 -60 20 -57 34 -113 12 -50 97 -217 110 -217 12 0 106 224 115 275 2
17 7 39 10 50 49 170 53 365 14 545 -7 30 -13 60 -14 65 0 6 -6 24 -13 40 -7
17 -15 39 -17 50 -2 11 -8 21 -14 23 -5 2 -10 8 -10 14 0 10 -50 86 -72 110
-7 7 -28 33 -47 58 -30 40 -136 128 -165 139 -6 2 -17 8 -24 14 -8 6 -24 13
-35 14 -12 2 -25 10 -30 18 -7 13 -68 46 -89 49 -3 1 -10 4 -14 9 -4 4 -17 7
-30 7 -12 0 -41 9 -64 19 -34 15 -66 19 -171 19 -70 0 -129 -2 -131 -3z"/>
<path d="M2345 3949 c-4 -5 -3 -29 1 -52 4 -23 7 -46 5 -51 -3 -14 18 -114 42
-191 11 -38 20 -73 19 -77 -1 -5 3 -8 8 -8 5 0 9 -3 8 -7 -3 -13 25 -98 35
-104 4 -3 7 -10 6 -15 -2 -5 5 -25 13 -44 9 -19 24 -55 33 -80 10 -25 23 -58
30 -75 44 -108 59 -151 57 -157 -1 -5 2 -8 7 -8 5 0 13 -10 17 -22 13 -42 67
-153 80 -163 26 -21 152 -266 160 -312 3 -15 9 -32 13 -38 4 -5 18 -41 31 -80
22 -68 86 -255 97 -285 10 -25 16 -56 28 -135 2 -11 4 -20 5 -20 1 0 4 -20 6
-45 8 -80 13 -115 14 -115 9 0 0 -127 -14 -200 -9 -46 -39 -141 -48 -152 -6
-7 -7 -13 -4 -13 4 0 -12 -36 -35 -80 -24 -44 -46 -80 -51 -80 -4 0 -8 -4 -8
-10 0 -13 -109 -116 -158 -149 -20 -14 -39 -29 -40 -34 -5 -10 -65 -42 -74
-39 -5 1 -8 -2 -8 -8 0 -5 -7 -10 -16 -10 -17 0 -16 -17 4 -90 47 -165 55
-200 60 -276 3 -34 23 -34 92 -1 36 17 67 31 70 32 3 0 21 9 40 20 19 11 38
18 43 17 4 -1 7 2 7 8 0 5 15 17 33 26 17 9 34 20 37 23 3 3 21 18 41 33 39
29 104 92 154 150 37 42 105 144 105 157 0 5 3 11 8 13 11 5 69 125 98 203 27
75 29 82 39 141 6 37 8 52 21 154 9 78 14 320 6 320 -4 0 -8 19 -8 43 -2 53
-9 95 -29 177 -9 35 -17 71 -19 80 -13 66 -65 189 -94 223 -8 9 -12 17 -8 17
4 0 -2 13 -13 29 -12 16 -21 34 -21 40 0 6 -4 19 -9 29 -4 9 -18 37 -30 62
-11 25 -36 73 -55 108 -19 34 -32 62 -30 62 3 0 -12 29 -47 85 -13 22 -24 42
-24 45 -1 3 -16 52 -34 110 -19 58 -34 111 -34 118 0 6 -4 12 -7 12 -10 0 -60
103 -60 122 0 8 -22 59 -49 114 -27 54 -53 111 -56 127 -4 15 -10 27 -14 27
-3 0 -5 15 -5 32 1 18 -3 39 -9 46 -5 6 -7 12 -3 12 4 0 -1 12 -11 26 -9 15
-19 36 -20 48 -2 12 -6 28 -10 36 -3 8 -7 19 -7 24 -2 17 -51 45 -90 51 -21 3
-41 7 -45 9 -26 15 -268 29 -276 15z"/>
<path d="M2690 2873 c-8 -3 -29 -18 -45 -32 -17 -14 -44 -35 -59 -46 -16 -11
-33 -25 -40 -30 -17 -17 -201 -140 -296 -200 -82 -52 -119 -80 -129 -98 -7
-12 -42 -42 -78 -67 -37 -25 -97 -74 -133 -110 -36 -36 -78 -74 -93 -84 -15
-10 -25 -21 -22 -24 3 -3 -10 -22 -28 -41 -47 -50 -127 -167 -120 -175 4 -3 1
-6 -5 -6 -7 0 -12 -5 -12 -10 0 -6 -11 -28 -25 -50 -14 -22 -23 -40 -20 -40 3
0 -6 -21 -19 -48 -13 -26 -27 -63 -30 -82 -3 -19 -12 -64 -20 -100 -13 -61
-13 -139 -2 -260 6 -66 24 -122 76 -245 7 -16 13 -33 12 -37 -1 -5 2 -8 8 -8
5 0 10 -5 10 -11 0 -13 90 -142 102 -147 4 -2 8 -8 8 -12 0 -11 78 -89 83 -84
2 2 16 -7 31 -21 15 -14 31 -25 37 -25 5 0 9 -5 9 -12 0 -6 3 -9 6 -6 3 4 32
-7 65 -23 32 -16 82 -34 109 -39 28 -5 58 -13 68 -18 9 -5 34 -10 55 -11 l38
-3 -5 64 c-2 35 -18 110 -35 168 -17 58 -31 113 -31 122 0 9 -7 24 -16 33 -9
9 -16 27 -16 41 0 15 -8 28 -17 31 -9 4 -31 21 -49 40 -18 18 -36 33 -39 33
-3 0 -12 8 -20 17 -20 26 -54 93 -47 93 3 0 -2 7 -10 16 -9 8 -17 22 -17 30
-3 28 -7 54 -9 62 -8 19 -4 122 4 122 5 0 7 3 3 6 -3 4 1 20 9 36 9 17 18 42
20 56 3 13 12 39 21 56 26 51 120 189 153 223 16 18 30 37 30 42 0 6 5 11 10
11 10 0 22 9 74 56 15 13 31 24 37 24 5 0 22 12 37 26 15 14 55 48 90 76 34
28 62 55 62 58 0 4 18 15 40 25 22 10 40 21 40 25 0 4 37 31 83 61 75 49 145
102 205 155 25 23 35 55 19 65 -5 4 -11 21 -12 37 -3 35 -102 242 -134 278 -5
7 -7 15 -4 18 7 7 4 7 -17 -1z"/>
<path d="M2250 2004 c-46 -24 -122 -108 -189 -208 -55 -81 -79 -136 -59 -136
6 0 9 -3 5 -6 -3 -4 0 -22 8 -40 8 -19 13 -34 11 -34 -2 0 5 -30 16 -67 10
-38 20 -74 20 -80 1 -7 6 -13 11 -13 6 0 7 -3 4 -7 -4 -3 -2 -12 4 -20 6 -7 8
-13 5 -13 -4 0 -1 -10 5 -22 7 -13 14 -36 15 -53 4 -43 10 -74 24 -125 6 -24
13 -56 14 -71 1 -15 8 -34 15 -43 7 -8 21 -48 32 -88 27 -101 27 -103 29 -103
1 0 3 -12 4 -26 2 -14 6 -30 9 -36 4 -6 9 -37 12 -69 6 -70 13 -140 21 -209 4
-27 7 -56 7 -62 0 -7 3 -13 6 -13 3 0 7 -18 8 -40 1 -22 15 -63 32 -96 18 -31
33 -66 35 -78 3 -11 5 -21 6 -21 1 0 4 -11 6 -25 8 -46 25 -100 44 -144 18
-43 19 -44 67 -43 26 0 54 5 62 11 8 6 15 9 17 6 2 -3 14 10 28 29 14 19 23
38 20 42 -3 5 0 9 5 9 6 0 10 3 9 8 -1 4 1 18 5 32 3 14 11 52 18 85 7 33 14
67 17 75 4 15 14 137 14 175 0 11 -3 40 -7 65 -4 25 -8 72 -9 105 -2 33 -6 78
-10 100 -4 22 -8 54 -10 70 -3 17 -9 43 -15 58 -6 15 -10 31 -9 35 1 4 -2 14
-5 22 -7 17 -29 102 -29 110 0 3 -4 10 -9 17 -6 6 -12 26 -15 45 -2 18 -7 51
-10 73 -3 22 -8 47 -11 55 -3 8 -7 20 -8 25 -3 22 -18 72 -32 110 -8 22 -14
40 -12 40 1 0 -6 25 -16 55 -10 30 -19 64 -20 75 -1 11 -9 44 -18 73 -9 30
-16 57 -15 60 1 4 -8 27 -19 52 -12 25 -26 65 -32 90 -7 25 -13 50 -14 55 -2
6 -9 20 -16 33 -7 13 -14 33 -16 45 -5 27 -26 67 -34 66 -3 -1 -17 -7 -31 -15z"/>
<path d="M800 834 c0 -9 12 -14 36 -14 24 0 34 4 32 12 -6 18 -68 19 -68 2z"/>
</g>
</svg>
